<?xml version="1.0" standalone="no"?>
<!DOCTYPE svg PUBLIC "-//W3C//DTD SVG 20010904//EN"
 "http://www.w3.org/TR/2001/REC-SVG-20010904/DTD/svg10.dtd">
<svg version="1.0" xmlns="http://www.w3.org/2000/svg"
 width="686.000000pt" height="686.000000pt" viewBox="0 0 686.000000 686.000000"
 preserveAspectRatio="xMidYMid meet">
<metadata>
Created by potrace 1.14, written by Peter Selinger 2001-2017
</metadata>
<g transform="translate(0.000000,686.000000) scale(0.100000,-0.100000)"
fill="#000000" stroke="none">
<path d="M3314 6010 c-30 -12 -59 -56 -78 -119 -26 -88 -24 -94 46 -129 62
-30 88 -30 88 2 0 7 19 19 42 27 43 16 68 50 82 111 8 33 -13 54 -89 92 -59
28 -60 29 -91 16z"/>
<path d="M2851 5722 c-53 -48 -53 -48 -39 -76 l15 -29 26 35 c15 19 27 40 27
45 0 6 6 16 14 22 15 13 28 51 18 51 -4 0 -31 -22 -61 -48z"/>
<path d="M3303 5683 c-25 -3 -47 -21 -103 -84 -38 -44 -77 -91 -86 -105 -22
-32 -58 -29 -63 6 -3 23 -16 39 -33 40 -24 0 -79 -74 -98 -131 -12 -35 -23
-66 -26 -68 -2 -2 -9 9 -16 25 -20 45 -41 66 -50 51 -6 -9 -10 -8 -18 3 -9 13
-10 13 -10 0 0 -8 -22 -30 -48 -49 -26 -18 -54 -47 -62 -64 -17 -33 -16 -33
-140 -41 -47 -3 -96 -8 -110 -10 -14 -3 -47 -7 -75 -10 -63 -7 -295 -49 -390
-72 -172 -41 -170 -39 -149 -79 9 -17 18 -51 20 -76 l5 -47 -45 -20 c-36 -17
-43 -25 -39 -42 4 -16 1 -20 -21 -20 -37 0 -34 -33 7 -61 17 -13 34 -26 37
-30 3 -4 12 -9 20 -11 8 -2 21 -12 29 -22 13 -17 12 -21 -5 -33 -20 -15 -39
-13 -92 8 -32 13 -35 13 -57 -13 -33 -38 -23 -71 31 -103 53 -31 104 -37 186
-20 33 7 65 12 71 11 30 -5 117 -39 122 -47 3 -5 33 -6 65 -2 l60 6 0 -34 c0
-80 14 -90 91 -68 36 11 38 14 36 51 -3 37 -1 39 38 49 22 5 51 14 65 19 34
12 133 29 142 24 7 -5 4 -88 -7 -179 -11 -91 -14 -120 -21 -198 -3 -40 -10
-76 -14 -82 -4 -5 -11 -32 -14 -58 -4 -27 -9 -59 -12 -70 -2 -12 -7 -38 -10
-57 -3 -19 -9 -60 -14 -90 -5 -30 -12 -71 -15 -90 -3 -19 -7 -46 -10 -60 -3
-14 -7 -38 -9 -55 -23 -138 -37 -223 -40 -240 -2 -11 -7 -40 -11 -65 -10 -70
-14 -93 -20 -120 -3 -14 -8 -45 -11 -70 -3 -25 -9 -61 -14 -80 -13 -49 -4 52
14 163 20 118 6 248 -30 284 -7 7 -16 38 -19 68 -6 48 -9 53 -20 39 -11 -15
-14 -11 -23 32 -7 27 -14 65 -17 84 -3 19 -9 49 -12 65 -3 17 -6 39 -7 50 0
11 -6 25 -13 30 -14 12 -20 46 -11 61 4 6 8 27 10 48 2 41 -10 55 -52 57 -14
1 -32 2 -40 3 -8 1 -36 32 -61 70 -45 67 -62 82 -125 107 -23 9 -30 18 -26 31
5 21 -18 24 -47 6 -16 -10 -28 -4 -82 38 -35 28 -71 49 -80 47 -9 -2 -24 3
-33 12 -14 15 -14 18 9 42 28 31 21 53 -27 83 l-31 19 -59 -40 c-48 -33 -68
-41 -111 -42 -43 -2 -52 1 -51 15 3 41 -129 -10 -199 -76 -20 -20 -39 -36 -40
-36 -2 0 -2 13 1 29 5 38 56 88 74 74 9 -8 18 -5 32 8 18 17 18 19 2 25 -25
10 -105 -31 -154 -78 -46 -43 -50 -40 -26 18 11 27 12 35 3 27 -7 -7 -20 -13
-28 -13 -17 -1 -59 -60 -112 -157 -29 -54 -36 -62 -56 -57 -13 4 -30 1 -38 -6
-19 -16 -105 -146 -105 -160 0 -5 -4 -10 -10 -10 -5 0 -10 -6 -10 -12 0 -7
-17 -28 -37 -47 -21 -18 -30 -28 -20 -21 29 21 30 5 0 -30 -15 -18 -29 -42
-30 -54 -5 -30 -32 -85 -62 -126 -29 -40 -171 -209 -218 -259 -17 -19 -34 -50
-38 -68 -3 -18 -16 -44 -29 -57 -12 -14 -34 -49 -48 -78 -36 -73 -117 -302
-124 -346 -3 -21 -7 -43 -10 -50 -2 -8 -7 -37 -10 -65 -4 -29 -8 -55 -10 -59
-2 -3 -7 -28 -10 -55 -3 -26 -9 -66 -13 -89 -19 -101 9 -307 40 -289 5 4 6 13
0 23 -11 23 -11 166 0 155 5 -5 11 -34 13 -64 8 -114 18 -214 22 -218 2 -2 -1
-10 -7 -17 -8 -10 -5 -19 11 -36 11 -12 17 -24 12 -26 -16 -5 35 -173 56 -188
21 -14 199 -245 208 -269 4 -10 0 -15 -13 -15 -25 0 -63 28 -63 46 0 8 -7 14
-15 14 -8 0 -15 4 -15 10 0 5 -18 19 -40 30 -45 23 -52 15 -17 -18 19 -18 26
-19 37 -9 10 10 12 9 7 -4 -9 -25 73 -101 115 -105 37 -4 74 -21 102 -46 11
-10 23 -18 28 -18 16 0 7 -18 -12 -23 -13 -3 -56 18 -129 63 -60 37 -112 66
-115 63 -3 -3 -17 2 -31 11 -22 15 -26 15 -31 1 -3 -8 -10 -12 -15 -9 -5 3 -9
1 -9 -5 0 -13 101 -90 175 -132 72 -41 94 -52 165 -79 30 -12 64 -26 75 -30
30 -13 90 -30 121 -36 15 -3 31 -7 35 -10 5 -3 46 -7 92 -10 68 -5 91 -3 117
11 22 11 57 17 104 17 39 1 81 5 94 9 13 5 41 11 63 14 38 5 106 40 141 74 9
9 23 21 30 27 25 22 113 122 142 163 17 23 33 41 38 41 4 0 8 7 8 15 0 8 9 20
20 27 11 7 20 16 20 20 0 5 8 16 18 26 9 10 44 49 77 87 33 38 113 124 177
190 186 192 273 343 352 610 l15 50 -3 -92 c-4 -92 -4 -93 25 -117 27 -23 42
-65 19 -51 -7 4 -9 -3 -6 -21 3 -15 1 -33 -5 -40 -8 -9 -5 -16 9 -25 20 -12
18 -43 -6 -124 -6 -18 -6 -40 0 -54 6 -16 5 -27 -3 -31 -7 -5 -8 -13 -1 -26 5
-11 8 -32 5 -49 -2 -16 -5 -50 -8 -74 -2 -24 -11 -51 -19 -60 -17 -19 -22 -61
-7 -61 5 0 7 -9 4 -20 -3 -11 -9 -20 -13 -20 -4 0 -7 -16 -5 -35 4 -44 -22
-115 -35 -94 -7 11 -10 10 -16 -4 -3 -9 -4 -23 -1 -30 3 -8 -8 -58 -24 -112
-28 -95 -37 -178 -24 -240 10 -51 49 -182 71 -240 4 -11 8 -22 9 -25 1 -3 6
-16 12 -30 6 -14 13 -32 16 -40 6 -15 6 -11 11 85 3 48 13 174 22 280 2 28 7
86 10 130 3 44 7 96 9 115 2 19 3 45 4 58 1 13 5 21 9 18 5 -3 7 -33 6 -68
-15 -361 -16 -504 -4 -569 7 -38 17 -72 22 -75 4 -3 8 0 8 5 0 6 7 11 15 11 9
0 15 9 15 23 0 12 5 29 10 37 10 16 14 -25 10 -105 -3 -47 -3 -76 0 -130 1
-31 3 -36 9 -20 5 11 6 24 3 29 -3 5 0 6 7 2 6 -4 9 -12 6 -17 -4 -5 -1 -9 5
-9 5 0 22 26 37 58 23 51 26 71 29 187 4 170 14 454 17 482 2 13 6 26 10 29 4
4 7 21 7 37 0 24 -3 27 -14 18 -19 -16 -26 -2 -20 40 4 31 7 58 18 179 12 122
30 251 35 254 3 2 5 -66 4 -152 -1 -107 1 -143 7 -112 5 25 11 61 15 80 4 19
8 60 10 91 1 31 5 69 9 85 5 25 17 179 20 252 1 12 5 22 9 22 5 0 6 4 3 8 -3
5 2 40 10 78 8 38 16 80 18 94 2 14 9 52 15 85 5 33 13 85 16 115 4 30 8 66
10 80 2 14 6 45 9 70 3 25 15 77 27 115 11 39 24 81 28 94 4 14 13 27 21 29
10 4 11 0 5 -14 -4 -11 -9 -51 -11 -90 -2 -40 -17 -150 -33 -245 -36 -212 -38
-228 -46 -304 -3 -33 -8 -76 -11 -95 -8 -59 -14 -144 -19 -265 -4 -116 -4
-116 15 -93 l20 23 -4 -40 c-3 -22 -8 -76 -11 -120 -7 -79 -15 -113 -15 -62 0
15 -4 27 -10 27 -5 0 -10 -16 -10 -35 0 -24 4 -33 13 -29 11 4 12 -6 7 -46 -4
-28 -6 -62 -5 -75 0 -14 -3 -25 -8 -25 -4 0 -4 -8 1 -18 5 -9 6 -28 1 -42 -4
-14 -7 -19 -8 -12 -2 20 -21 14 -21 -8 0 -13 5 -18 15 -14 8 4 15 1 15 -5 0
-6 9 -11 20 -11 14 0 20 7 21 25 3 46 4 50 21 47 12 -2 15 3 11 18 -3 11 -9
20 -12 20 -4 0 -6 14 -3 31 2 17 -1 41 -8 54 -9 17 -10 28 -3 37 6 7 16 49 22
93 6 44 12 89 15 100 2 11 7 43 10 70 8 59 16 109 22 139 2 11 6 41 10 66 8
66 32 148 47 157 6 4 19 9 29 10 14 2 16 -8 12 -85 -2 -48 -6 -109 -9 -137
-11 -98 -14 -218 -7 -232 8 -13 12 5 38 167 3 19 14 89 25 155 11 66 22 134
25 150 7 44 13 81 19 115 3 17 7 45 10 63 3 17 7 43 10 57 3 14 7 41 10 60 3
19 7 46 10 60 3 14 7 39 9 55 3 17 15 86 26 155 12 69 23 139 26 155 3 17 12
71 20 120 8 50 17 105 20 124 3 18 7 41 9 50 2 9 13 63 25 121 12 58 23 119
26 135 11 86 82 337 99 354 13 14 17 13 31 -7 8 -12 22 -22 30 -22 20 0 18
-10 -8 -37 l-21 -23 26 0 c35 0 34 -8 -8 -56 l-35 -39 34 -33 c28 -29 36 -32
54 -23 37 20 54 14 48 -16 -3 -16 -8 -53 -11 -83 -3 -30 -8 -66 -10 -80 -2
-14 -7 -47 -10 -75 -14 -117 -35 -158 -140 -277 -97 -110 -120 -138 -153 -192
-28 -45 -32 -57 -23 -75 13 -23 44 -27 84 -12 35 14 43 -12 16 -50 -22 -32
-20 -59 6 -59 9 0 13 -4 10 -10 -3 -5 -15 -10 -26 -10 -11 0 -36 -15 -55 -34
-29 -28 -32 -35 -20 -45 8 -6 18 -11 22 -10 37 6 60 -34 44 -75 -8 -21 -5 -26
21 -36 35 -15 36 -43 1 -48 -40 -6 -72 -104 -54 -167 7 -22 3 -46 -14 -95 -12
-36 -22 -87 -22 -113 0 -45 -9 -123 -18 -172 -3 -11 -6 -36 -9 -55 -3 -27 -1
-24 11 15 8 28 20 61 26 75 l12 25 4 -25 c7 -40 -17 -128 -44 -159 -18 -21
-25 -45 -30 -97 -3 -38 -8 -87 -11 -109 -2 -22 -6 -62 -8 -88 -1 -27 -7 -53
-13 -59 -7 -7 -7 -19 -2 -34 5 -13 8 -49 6 -80 -5 -69 1 -89 20 -73 11 9 13 3
12 -33 -2 -85 14 -168 34 -182 37 -26 87 8 91 60 2 26 -1 29 -30 29 -32 1 -63
27 -58 49 1 6 5 27 9 46 4 19 16 46 26 60 l19 25 10 -26 c5 -15 8 -38 7 -52
-3 -21 1 -26 16 -23 11 1 24 9 29 17 7 11 9 11 9 -3 0 -11 8 -18 20 -18 11 0
20 -4 20 -10 0 -5 5 -10 10 -10 6 0 10 7 10 16 0 12 3 14 13 6 7 -6 11 -31 10
-64 -2 -73 4 -94 33 -107 34 -15 43 -14 42 7 -2 31 12 90 25 100 6 5 29 12 50
16 35 7 38 6 43 -23 6 -29 27 -46 45 -36 4 3 11 28 15 55 4 33 10 47 18 43 6
-4 20 -9 30 -10 11 -2 25 -8 32 -14 10 -8 12 -6 9 10 -2 11 3 27 10 35 10 9
14 36 14 83 0 43 7 89 20 125 11 32 18 67 16 78 -2 12 5 41 15 66 18 40 18 45
4 51 -12 5 -14 15 -10 47 4 23 9 57 12 76 5 33 20 116 30 170 3 14 14 66 25
115 12 50 23 101 25 115 3 14 10 43 15 65 5 22 12 54 15 70 3 17 12 52 20 79
7 27 11 52 8 57 -5 9 59 41 139 69 26 9 48 21 47 25 0 5 12 11 27 13 15 2 30
8 34 13 8 14 71 30 83 21 19 -14 189 -3 266 18 23 6 49 10 58 9 31 -4 98 21
121 45 13 14 35 25 50 25 34 0 59 6 107 26 73 31 110 29 234 -10 152 -48 237
-49 272 -3 17 22 16 24 -5 40 -21 16 -21 17 -3 24 10 4 21 2 25 -4 4 -6 24
-13 44 -15 47 -5 67 12 67 59 0 30 -10 45 -65 100 -36 36 -65 67 -65 69 0 7
97 -4 168 -20 39 -9 78 -15 85 -12 17 7 -56 37 -106 43 -70 10 -197 54 -197
69 0 19 77 39 104 27 36 -15 100 -9 104 10 4 22 -28 39 -83 41 -46 2 -57 15
-30 37 12 10 12 15 -1 35 -8 13 -25 25 -37 29 -17 4 -19 8 -9 18 6 6 12 20 12
29 0 22 -49 57 -73 54 -9 -2 -22 6 -28 18 -11 20 -13 19 -44 -16 -28 -32 -35
-35 -45 -22 -7 8 -21 15 -31 15 -20 0 -22 7 -19 53 3 45 -52 188 -75 197 -11
4 -50 6 -85 5 -36 -2 -103 3 -149 11 -46 8 -85 13 -88 11 -3 -4 63 -24 157
-47 63 -15 109 -18 113 -7 2 6 13 1 26 -12 l22 -22 -27 -37 c-15 -20 -29 -39
-30 -40 -7 -10 -64 12 -64 24 0 11 -7 13 -27 8 -15 -4 -32 -7 -38 -6 -49 7
-72 12 -93 23 -18 10 -28 10 -42 2 -10 -7 -30 -9 -47 -5 -42 10 -236 2 -248
-10 -4 -4 -13 -4 -20 -2 -7 3 -46 -2 -87 -10 -41 -9 -97 -18 -125 -22 l-51 -6
3 29 c2 15 8 50 13 78 6 27 8 53 6 57 -3 5 0 8 6 8 6 0 9 3 6 8 -2 4 -1 28 4
52 22 117 29 224 16 237 -9 9 37 41 90 61 27 10 76 20 109 21 35 2 63 8 67 15
5 10 49 12 170 12 102 -1 182 3 213 11 32 8 72 11 110 6 75 -8 117 -6 124 6 6
10 26 14 51 12 10 -1 7 -6 -9 -15 -25 -14 -24 -14 82 -7 5 1 5 6 2 11 -3 6 3
10 14 10 24 0 36 -16 19 -23 -10 -4 -10 -6 0 -6 7 -1 11 -5 8 -9 -3 -5 19 -8
47 -8 55 0 234 -14 377 -30 120 -13 140 -13 140 -3 0 6 6 7 13 2 6 -4 23 -8
37 -9 14 -1 48 -5 76 -9 41 -6 54 -4 67 10 19 18 14 35 -9 35 -9 0 -12 -5 -8
-11 3 -6 -5 -4 -18 5 -16 11 -38 15 -62 12 -20 -2 -51 0 -69 5 -35 10 -86 16
-212 24 -116 7 -181 15 -259 31 -72 15 -86 20 -86 33 0 8 87 26 122 25 14 0
15 3 7 13 -9 10 -3 13 32 13 40 0 41 -1 23 -15 -19 -14 -19 -14 2 -15 26 0 44
-18 37 -37 -4 -11 -1 -12 19 -2 19 8 33 7 61 -4 25 -11 37 -12 40 -4 2 8 24 6
75 -5 40 -9 75 -12 78 -7 6 11 74 1 92 -13 8 -7 12 -7 12 3 0 10 3 10 12 1 8
-8 15 -8 24 -1 18 15 115 13 124 -1 6 -9 13 -9 27 -1 11 6 31 8 44 5 62 -13
120 -21 143 -18 18 2 23 -1 19 -12 -4 -10 -13 -14 -29 -10 -33 9 -53 -2 -47
-25 4 -13 11 -18 23 -14 9 3 29 -4 45 -17 24 -19 39 -21 112 -20 47 2 93 7
103 12 10 6 32 10 49 10 17 0 31 4 31 9 0 12 -73 25 -201 34 -89 7 -90 36 -1
37 78 1 93 2 86 9 -9 10 100 27 118 19 9 -4 26 -8 38 -8 12 0 18 -4 15 -10 -3
-6 1 -10 9 -10 9 0 16 4 16 9 0 11 58 22 139 26 35 2 67 7 72 12 12 12 12 12
-151 17 -175 6 -311 16 -323 23 -5 3 -40 7 -76 8 -61 3 -114 21 -156 55 -10 8
-92 25 -177 35 -26 3 -50 11 -54 16 -5 9 77 6 152 -6 12 -2 48 -6 80 -10 33
-4 70 -9 84 -11 33 -5 332 -18 388 -16 44 1 117 20 108 29 -2 3 -31 7 -63 10
-65 6 -97 19 -87 35 4 6 24 8 51 4 29 -4 56 -1 79 9 55 23 49 25 -71 24 -22 0
-51 -2 -65 -3 -43 -5 -183 30 -175 44 5 8 -84 30 -120 30 -12 0 -38 6 -57 14
-19 8 -74 22 -124 31 -49 10 -93 20 -99 23 -5 4 -21 7 -35 8 -14 1 -45 5 -70
8 -25 3 -67 8 -95 12 -27 3 -61 7 -75 9 -25 4 -82 11 -156 20 -75 8 -118 15
-123 20 -2 3 5 5 16 5 11 0 26 6 33 14 6 8 17 13 23 11 7 -2 41 -6 77 -10 113
-10 146 -14 176 -19 16 -3 47 -8 69 -11 22 -3 67 -11 100 -16 33 -6 87 -12
120 -14 33 -2 87 -7 120 -11 33 -5 94 -8 135 -7 41 2 116 -2 165 -9 113 -14
221 -17 237 -6 8 5 0 8 -22 9 -19 0 -42 2 -50 3 -8 2 -49 6 -90 10 -177 15
-305 39 -296 55 3 4 0 8 -7 8 -13 0 -134 12 -182 18 -16 2 -34 11 -41 19 -6 9
-34 18 -65 22 -30 3 -58 9 -63 12 -5 3 -77 7 -160 10 -86 2 -157 9 -164 15
-10 8 -16 7 -22 -4 -8 -12 -13 -12 -31 -1 -11 8 -18 9 -14 3 3 -6 3 -12 -2
-12 -36 -6 -100 -5 -139 2 -38 7 -49 6 -58 -7 -14 -18 -78 -22 -84 -6 -4 13
-34 16 -45 6 -3 -4 -35 -8 -69 -9 -35 -2 -69 -5 -77 -7 -7 -1 -15 2 -17 7 -3
6 17 16 42 23 53 14 53 19 3 26 -169 25 -221 29 -339 31 -74 1 -150 -2 -169
-7 -18 -5 -59 -9 -90 -9 -31 1 -82 1 -114 1 -33 0 -56 4 -52 9 3 6 13 9 23 9
16 -1 93 10 137 18 11 2 40 7 65 10 25 3 56 8 70 10 14 3 43 7 64 9 22 2 62 6
90 10 109 13 123 15 171 20 74 7 169 14 270 20 49 3 93 9 98 14 13 13 -32 41
-65 41 -32 0 -79 -20 -73 -30 3 -4 -7 -10 -21 -13 -18 -3 -24 -1 -20 9 4 11 0
11 -18 -1 -22 -14 -24 -14 -30 1 -6 16 -8 16 -23 1 -15 -15 -17 -15 -28 0 -14
18 -37 9 -29 -11 7 -19 -43 -27 -61 -10 -10 11 -14 11 -18 1 -3 -9 -7 -9 -19
1 -12 10 -30 10 -84 1 -109 -17 -244 -14 -272 7 -15 12 -12 14 23 15 160 5
433 18 518 24 93 6 98 10 94 58 l-4 42 -64 1 c-35 1 -75 2 -89 3 l-25 2 29 15
c15 9 60 18 100 21 39 2 77 6 84 8 6 3 12 -2 12 -10 0 -18 12 -19 28 -3 12 12
55 13 111 3 31 -5 40 6 23 31 -9 13 -290 18 -305 5 -7 -5 -84 -9 -172 -8 -88
0 -197 -3 -242 -7 -57 -5 -83 -4 -83 3 0 6 -16 11 -35 11 -21 0 -34 -5 -32
-12 2 -14 -55 -18 -98 -7 -73 19 -96 18 -117 -3 -20 -20 -22 -20 -50 -3 -17
10 -33 14 -37 9 -3 -5 -19 -10 -34 -11 -22 -2 -27 2 -23 13 3 9 6 20 6 25 0 5
9 9 21 9 11 0 17 -4 14 -10 -3 -5 1 -10 10 -10 9 0 14 4 11 9 -3 5 1 11 9 14
9 4 12 1 8 -10 -4 -11 -1 -14 13 -11 10 2 18 9 17 14 -1 6 10 11 25 11 91 1
387 15 392 18 7 4 59 16 78 17 16 2 15 13 -4 33 -12 12 -19 13 -30 4 -10 -8
-18 -8 -27 0 -10 7 -17 7 -24 0 -8 -8 -13 -8 -17 0 -9 14 -49 14 -63 0 -6 -6
-64 -12 -134 -15 -68 -2 -135 -4 -149 -5 -40 -2 -54 0 -46 9 4 4 12 8 17 8 5
1 10 2 12 3 1 1 36 4 77 8 111 8 134 11 140 13 3 1 13 2 23 1 9 -1 17 2 17 7
0 15 -36 21 -72 13 -29 -6 -96 -7 -155 -2 -16 1 -16 3 -3 12 11 7 -16 8 -90 4
-58 -3 -245 -8 -417 -11 l-312 -6 -12 48 c-12 48 -70 124 -94 124 -24 0 -50
-54 -55 -114 -6 -69 -25 -85 -43 -36 -12 32 -13 32 -64 26 -56 -6 -62 -1 -43
35 6 10 21 19 33 19 18 0 19 2 7 10 -12 8 -9 16 22 43 20 17 55 45 78 61 51
35 102 103 98 131 -3 21 -30 27 -95 18z m-533 -378 c0 -8 -7 -15 -16 -15 -14
0 -14 3 -4 15 7 8 14 15 16 15 2 0 4 -7 4 -15z m2171 -203 c-7 -2 -18 1 -23 6
-8 8 -4 9 13 5 13 -4 18 -8 10 -11z m-74 2 c-3 -3 -12 -4 -19 -1 -8 3 -5 6 6
6 11 1 17 -2 13 -5z m-611 -261 c-11 -11 -77 -12 -70 -2 3 5 21 9 41 9 20 0
33 -3 29 -7z m-206 -18 c0 -1 -9 -5 -19 -8 -13 -3 -18 -1 -14 9 4 10 33 10 33
-1z m-153 -11 c-3 -3 -12 -4 -19 -1 -8 3 -5 6 6 6 11 1 17 -2 13 -5z m1286
-90 c21 -16 21 -16 -8 -8 -16 4 -40 8 -52 8 -22 1 -30 15 -17 29 8 7 49 -8 77
-29z m-128 15 c11 -17 -1 -21 -15 -4 -8 9 -8 15 -2 15 6 0 14 -5 17 -11z
m-1240 -45 c-22 -8 -47 -16 -55 -17 -8 -2 -19 -5 -25 -8 -5 -4 -23 -9 -38 -13
-15 -4 -84 -45 -154 -92 -69 -47 -127 -84 -129 -82 -2 2 5 33 16 69 24 77 24
74 5 59 -8 -7 -15 -19 -15 -27 0 -10 -7 -14 -19 -10 -17 4 -28 -15 -46 -83
-16 -60 -27 -90 -35 -95 -17 -10 -11 23 21 134 18 63 37 110 47 116 9 5 35 10
57 11 22 1 51 5 65 8 14 4 54 8 90 10 63 4 101 9 185 26 62 12 74 10 30 -6z
m1550 6 c4 -7 -3 -8 -22 -4 -38 9 -42 14 -10 14 14 0 29 -5 32 -10z m195 -81
c10 -6 5 -8 -15 -5 -16 3 -57 7 -90 11 -33 4 -62 9 -65 11 -8 9 155 -8 170
-17z m278 -21 c50 -2 88 -6 85 -11 -6 -9 12 -15 67 -21 25 -3 104 -13 177 -22
l131 -17 4 -32 c3 -28 1 -31 -24 -33 -18 -2 -28 3 -28 12 0 23 -22 34 -85 40
-33 4 -67 9 -75 11 -28 8 -105 17 -161 20 -31 1 -61 5 -66 8 -5 3 -45 13 -89
22 -83 17 -121 35 -61 30 20 -2 76 -5 125 -7z m27 -208 c-3 -5 -16 -10 -28 -9
-21 0 -21 1 -2 9 28 12 37 12 30 0z m-739 -76 c42 -9 104 -37 104 -46 0 -4
-13 -6 -30 -4 -16 2 -30 -1 -30 -5 0 -5 -13 -9 -30 -9 -16 0 -30 5 -30 10 0
16 -61 49 -79 43 -11 -3 -10 0 4 12 11 9 29 14 41 11 12 -3 34 -8 50 -12z
m-1835 -35 c-6 -24 -9 -28 -10 -12 -1 24 9 56 16 50 2 -3 0 -20 -6 -38z m142
22 c-5 -3 -24 -27 -43 -54 -18 -26 -37 -44 -41 -40 -10 10 0 55 10 49 4 -3 17
11 30 29 14 22 28 32 38 28 8 -3 11 -9 6 -12z m1568 -9 c-7 -2 -18 1 -23 6 -8
8 -4 9 13 5 13 -4 18 -8 10 -11z m1122 -31 c33 -1 46 -5 41 -12 -6 -10 -71
-10 -211 1 -2 0 -3 5 -3 11 0 7 21 9 63 5 34 -2 84 -5 110 -5z m-2688 -57 c13
-21 15 -31 6 -50 -14 -32 -45 -31 -60 2 -10 22 -9 31 4 50 20 31 29 30 50 -2z
m-2445 4 c0 -7 -18 -33 -39 -58 -34 -39 -39 -42 -34 -19 3 14 17 33 34 43 16
9 28 20 28 24 -2 12 1 22 6 22 3 0 5 -6 5 -12z m2285 -8 c3 -5 1 -10 -4 -10
-6 0 -11 5 -11 10 0 6 2 10 4 10 3 0 8 -4 11 -10z m-1665 -67 c0 -2 -9 -13
-19 -24 -13 -14 -21 -17 -26 -9 -4 6 -17 15 -29 20 -21 8 -21 8 3 17 22 9 71
6 71 -4z m-70 -317 c0 -12 -13 -14 -40 -6 -4 1 24 16 38 19 1 1 2 -5 2 -13z
m30 -64 c22 -11 36 -26 38 -40 4 -27 14 -28 54 -4 22 13 28 23 25 40 -2 12 -1
22 3 22 10 0 20 -26 20 -50 0 -13 5 -17 20 -13 30 8 26 -31 -7 -61 l-27 -26
41 5 c49 5 53 0 60 -63 7 -59 7 -82 -2 -157 -3 -33 -8 -73 -10 -90 -1 -16 -4
-30 -5 -30 -1 0 -3 -18 -6 -40 -3 -34 -8 -54 -19 -97 -2 -5 -4 -10 -5 -13 -1
-3 -3 -8 -5 -12 -1 -5 -7 -20 -13 -35 -6 -15 -19 -53 -28 -85 -27 -98 -103
-228 -241 -416 -23 -32 -57 -84 -74 -115 -18 -31 -36 -59 -39 -62 -4 -3 -13
-17 -21 -32 -14 -26 -158 -179 -215 -228 -43 -38 -113 -83 -164 -106 -25 -12
-70 -33 -100 -47 -60 -29 -100 -29 -180 -2 -32 10 -84 60 -76 73 3 5 -3 12
-14 15 -21 5 -65 94 -73 146 -3 16 -7 33 -10 38 -7 13 -19 131 -22 223 -2 47
-4 90 -6 95 -1 6 1 28 6 50 9 41 12 78 14 176 1 55 2 57 31 61 27 4 30 2 31
-21 1 -14 3 -44 4 -66 2 -22 4 -53 4 -69 1 -23 5 -27 21 -23 15 4 20 0 20 -16
0 -28 20 -100 26 -94 5 5 13 84 21 220 5 91 13 117 19 64 1 -12 3 -24 4 -27 1
-3 1 -35 0 -72 0 -36 3 -69 9 -72 5 -4 13 -28 17 -54 10 -73 12 -80 23 -99 10
-17 11 -16 17 5 3 12 9 22 13 22 4 0 5 27 3 60 -3 40 0 60 7 60 6 0 11 -10 11
-22 0 -26 16 -55 25 -46 7 7 8 33 2 71 -2 15 0 30 6 34 6 3 7 1 3 -5 -3 -6 -2
-13 4 -17 9 -6 15 8 11 29 -1 5 5 16 13 25 7 9 16 25 19 36 3 14 5 10 7 -12 1
-18 4 -37 5 -43 1 -5 3 -25 4 -42 1 -25 4 -29 11 -18 5 8 10 73 10 143 0 121
1 130 23 148 12 10 18 18 12 19 -5 0 -10 11 -10 26 0 18 4 24 16 21 12 -3 14
2 11 26 -3 18 1 32 9 37 7 5 14 28 15 52 2 38 39 158 49 158 5 0 -1 -62 -10
-120 -3 -19 -10 -66 -16 -105 -6 -38 -13 -77 -14 -85 -2 -12 -15 -121 -17
-140 -1 -18 4 -21 17 -10 8 7 15 19 15 27 0 8 11 38 24 66 22 46 58 182 73
272 2 17 15 61 29 100 26 78 20 98 -22 71 -35 -24 -46 -10 -33 39 16 60 50
135 61 135 5 0 7 4 4 8 -9 15 54 80 84 87 16 4 33 11 36 17 4 7 -5 8 -27 3
-32 -6 -33 -6 -14 8 65 48 210 86 258 68 18 -7 30 -6 43 4 23 18 21 18 64 -3z
m3657 -282 c-1 -21 -21 -27 -32 -11 -4 8 18 28 32 31 1 0 1 -9 0 -20z m-2294
-65 c-7 -21 -13 -19 -13 6 0 11 4 18 10 14 5 -3 7 -12 3 -20z m-8 -82 c-9 -46
-12 -69 -20 -153 -12 -122 -21 -160 -35 -160 -5 0 -7 12 -5 28 3 15 7 47 9 72
3 25 5 45 6 45 0 0 3 21 5 46 6 65 13 99 26 131 16 39 23 35 14 -9z m-2524
-64 c-11 -24 -20 -41 -20 -37 -1 12 31 89 35 85 3 -2 -4 -24 -15 -48z m1956
-241 c-3 -8 -6 -5 -6 6 -1 11 2 17 5 13 3 -3 4 -12 1 -19z m-10 -55 c-3 -10
-5 -4 -5 12 0 17 2 24 5 18 2 -7 2 -21 0 -30z m516 -34 c-5 -5 -8 3 -7 19 3
37 6 41 11 13 3 -13 1 -27 -4 -32z m-542 -132 c-10 -9 -11 -8 -5 6 3 10 9 15
12 12 3 -3 0 -11 -7 -18z m-131 -27 c0 -5 -4 -10 -10 -10 -5 0 -10 5 -10 10 0
6 5 10 10 10 6 0 10 -4 10 -10z m-1603 -32 c-3 -8 -6 -5 -6 6 -1 11 2 17 5 13
3 -3 4 -12 1 -19z m1926 -358 c-8 -30 -21 -34 -15 -5 2 14 8 25 12 25 5 0 6
-9 3 -20z m77 -30 c0 -5 -2 -10 -4 -10 -3 0 -8 5 -11 10 -3 6 -1 10 4 10 6 0
11 -4 11 -10z m1091 -547 c-10 -17 -10 -16 -11 3 0 23 13 41 18 25 2 -6 -1
-18 -7 -28z"/>
<path d="M6260 4480 c0 -5 5 -10 10 -10 6 0 10 5 10 10 0 6 -4 10 -10 10 -5 0
-10 -4 -10 -10z"/>
<path d="M1406 3721 c-3 -4 6 -8 20 -9 13 -1 24 0 24 2 0 7 -40 14 -44 7z"/>
<path d="M1464 3695 c3 -8 1 -15 -4 -15 -6 0 -10 -4 -10 -10 0 -5 7 -7 15 -4
10 4 15 0 15 -16 0 -11 5 -18 10 -15 14 9 13 48 -2 63 -17 17 -31 15 -24 -3z"/>
<path d="M1265 3690 c-3 -5 -2 -10 4 -10 5 0 13 5 16 10 3 6 2 10 -4 10 -5 0
-13 -4 -16 -10z"/>
<path d="M1438 3604 c-37 -19 -35 -24 6 -24 24 0 34 4 32 15 -3 23 -9 24 -38
9z"/>
<path d="M930 2960 c0 -5 5 -10 10 -10 6 0 10 5 10 10 0 6 -4 10 -10 10 -5 0
-10 -4 -10 -10z"/>
<path d="M900 2918 c0 -12 3 -18 7 -14 11 10 12 36 2 36 -5 0 -9 -10 -9 -22z"/>
<path d="M931 2894 c0 -11 3 -14 6 -6 3 7 2 16 -1 19 -3 4 -6 -2 -5 -13z"/>
<path d="M925 2840 c-4 -6 -11 -8 -16 -5 -5 4 -9 -1 -9 -9 0 -14 3 -14 20 -4
11 7 20 16 20 20 0 11 -8 10 -15 -2z"/>
<path d="M520 2640 c0 -5 5 -10 11 -10 5 0 7 5 4 10 -3 6 -8 10 -11 10 -2 0
-4 -4 -4 -10z"/>
<path d="M651 2634 c0 -11 3 -14 6 -6 3 7 2 16 -1 19 -3 4 -6 -2 -5 -13z"/>
<path d="M548 2562 c-12 -19 -14 -32 -7 -45 15 -25 29 -11 24 23 -2 17 1 30 6
30 5 0 9 5 9 10 0 19 -16 10 -32 -18z"/>
<path d="M560 2455 c0 -8 5 -15 10 -15 6 0 10 7 10 15 0 8 -4 15 -10 15 -5 0
-10 -7 -10 -15z"/>
<path d="M2490 5605 c-10 -12 -10 -21 -2 -39 15 -33 45 -40 81 -21 56 28 63
79 8 54 -20 -9 -30 -8 -49 5 -23 15 -26 15 -38 1z"/>
<path d="M2623 5461 c-7 -11 -9 -30 -5 -46 7 -26 8 -26 26 -7 18 21 19 63 1
69 -6 2 -15 -5 -22 -16z"/>
<path d="M4310 5339 c0 -5 5 -7 10 -4 6 3 10 8 10 11 0 2 -4 4 -10 4 -5 0 -10
-5 -10 -11z"/>
<path d="M4614 5319 c-7 -13 11 -19 42 -13 40 7 40 11 -1 16 -20 2 -38 1 -41
-3z"/>
<path d="M4740 5319 c0 -5 5 -7 10 -4 6 3 10 8 10 11 0 2 -4 4 -10 4 -5 0 -10
-5 -10 -11z"/>
<path d="M1469 4999 c-54 -27 -89 -63 -89 -92 0 -8 11 -30 24 -50 l25 -36 -28
-6 c-34 -7 -71 -39 -72 -63 -2 -35 4 -68 17 -94 19 -37 89 -48 135 -22 46 27
56 47 42 83 -8 23 -8 36 4 58 13 25 13 29 -6 44 -20 16 -20 17 11 65 20 32 32
63 32 88 1 55 -23 62 -95 25z"/>
<path d="M5280 5010 c0 -5 5 -10 11 -10 5 0 7 5 4 10 -3 6 -8 10 -11 10 -2 0
-4 -4 -4 -10z"/>
<path d="M4545 4870 c3 -5 12 -7 20 -3 21 7 19 13 -6 13 -11 0 -18 -4 -14 -10z"/>
<path d="M803 4619 c-11 -4 -39 -47 -66 -100 -62 -123 -90 -172 -102 -181 -11
-8 -7 -10 24 -11 20 -1 71 60 151 178 19 28 36 52 39 55 7 6 31 48 31 54 0 8
-59 12 -77 5z"/>
<path d="M206 4547 c-20 -16 -36 -60 -36 -102 0 -26 7 -39 32 -58 35 -28 59
-27 112 4 l34 20 23 -33 c37 -54 58 -70 82 -64 28 7 62 85 53 121 -8 30 -50
44 -79 26 -16 -11 -23 -9 -46 12 -41 38 -79 60 -96 53 -8 -3 -15 -2 -15 3 0
17 -47 30 -64 18z"/>
<path d="M6434 4521 c7 -11 56 -21 56 -11 0 9 -25 20 -46 20 -9 0 -13 -4 -10
-9z"/>
<path d="M1830 4435 c0 -10 29 -24 34 -17 3 6 -3 12 -14 15 -11 3 -20 4 -20 2z"/>
<path d="M6598 4433 c7 -3 16 -2 19 1 4 3 -2 6 -13 5 -11 0 -14 -3 -6 -6z"/>
<path d="M2045 4301 c-3 -5 4 -13 16 -16 28 -9 36 1 10 14 -12 7 -22 7 -26 2z"/>
<path d="M5415 4260 c-8 -12 20 -19 36 -9 8 5 12 9 9 10 -3 0 -13 2 -22 4 -10
2 -20 0 -23 -5z"/>
<path d="M2077 4233 c-4 -3 -7 -11 -7 -17 0 -6 5 -5 12 2 6 6 9 14 7 17 -3 3
-9 2 -12 -2z"/>
<path d="M6530 4220 c0 -5 5 -10 11 -10 5 0 7 5 4 10 -3 6 -8 10 -11 10 -2 0
-4 -4 -4 -10z"/>
<path d="M5915 4210 c3 -5 16 -10 27 -10 26 0 16 13 -13 17 -12 2 -18 -1 -14
-7z"/>
<path d="M6084 4199 c-3 -5 9 -9 25 -9 17 0 31 4 31 9 0 5 -11 9 -25 9 -14 0
-28 -4 -31 -9z"/>
<path d="M6087 4159 c-9 -6 -17 -14 -17 -20 0 -5 11 -2 25 7 14 9 25 12 25 7
0 -5 14 -8 30 -5 17 2 29 7 26 10 -10 9 -72 10 -89 1z"/>
<path d="M605 3900 c-10 -11 -13 -20 -8 -20 13 0 38 29 31 35 -3 3 -13 -4 -23
-15z"/>
<path d="M505 3817 c-103 -108 -124 -135 -188 -235 -105 -163 -209 -395 -258
-576 -36 -136 -47 -241 -47 -461 0 -182 4 -243 22 -350 5 -28 39 -105 47 -105
4 0 12 14 19 30 9 23 10 37 1 58 -18 43 -25 143 -25 347 -1 194 3 242 29 362
29 136 92 323 120 355 11 13 13 24 7 30 -6 6 -1 19 14 35 14 15 24 38 24 55 0
20 7 32 23 39 12 6 34 36 50 67 15 31 38 77 52 102 14 25 25 52 25 61 0 9 7
20 16 23 8 3 13 10 10 15 -3 5 2 15 11 22 11 10 14 10 9 2 -5 -9 -2 -11 8 -7
9 3 16 12 16 19 0 18 26 66 32 60 3 -3 11 1 18 10 7 8 10 15 6 15 -3 0 5 18
18 39 22 35 24 51 6 51 -3 0 -33 -28 -65 -63z"/>
<path d="M5195 3828 c-35 -10 -107 -58 -112 -75 -6 -16 65 -45 91 -37 28 9 66
44 66 62 0 9 7 24 17 34 9 10 12 18 7 19 -5 0 -16 2 -24 3 -8 2 -28 -1 -45 -6z"/>
<path d="M2291 3820 c0 -8 6 -37 13 -65 14 -47 14 -48 15 -15 0 33 -27 111
-28 80z"/>
<path d="M4610 3796 c0 -2 7 -7 16 -10 8 -3 12 -2 9 4 -6 10 -25 14 -25 6z"/>
<path d="M4670 3786 c0 -2 7 -7 16 -10 8 -3 12 -2 9 4 -6 10 -25 14 -25 6z"/>
<path d="M5610 3111 c0 -10 42 -23 49 -15 7 6 -20 24 -36 24 -7 0 -13 -4 -13
-9z"/>
<path d="M4265 2730 c-13 -6 -15 -9 -5 -9 8 0 22 4 30 9 18 12 2 12 -25 0z"/>
<path d="M3980 2569 c0 -27 2 -30 15 -19 11 9 12 17 4 31 -14 27 -19 24 -19
-12z"/>
<path d="M151 2264 c0 -11 3 -14 6 -6 3 7 2 16 -1 19 -3 4 -6 -2 -5 -13z"/>
<path d="M2875 2209 c-4 -6 -3 -15 3 -21 6 -6 11 -4 15 6 7 18 -9 31 -18 15z"/>
<path d="M2041 2150 c-7 -25 -21 -70 -31 -100 -15 -41 -17 -56 -8 -62 7 -4 16
-2 20 5 14 23 39 145 36 173 -4 27 -5 26 -17 -16z"/>
<path d="M2871 2084 c0 -11 3 -14 6 -6 3 7 2 16 -1 19 -3 4 -6 -2 -5 -13z"/>
<path d="M160 1975 c7 -9 15 -13 17 -11 7 7 -7 26 -19 26 -6 0 -6 -6 2 -15z"/>
<path d="M2814 1940 c-12 -38 -9 -49 7 -33 6 6 9 23 7 39 l-4 29 -10 -35z"/>
<path d="M2853 1928 c0 -7 -3 -43 -7 -80 -4 -38 -3 -68 2 -68 5 0 9 6 9 13 2
32 14 123 18 135 2 6 -1 12 -9 12 -7 0 -13 -6 -13 -12z"/>
<path d="M190 1924 c1 -13 40 -61 40 -48 0 6 -9 21 -20 34 -11 13 -20 19 -20
14z"/>
<path d="M2798 1845 c-3 -14 -2 -25 2 -25 4 0 12 11 18 25 9 20 9 25 -2 25 -8
0 -16 -11 -18 -25z"/>
<path d="M230 1850 c0 -5 5 -10 11 -10 5 0 7 5 4 10 -3 6 -8 10 -11 10 -2 0
-4 -4 -4 -10z"/>
<path d="M2700 1750 c0 -22 2 -40 4 -40 2 0 6 18 8 40 2 22 0 40 -4 40 -5 0
-8 -18 -8 -40z"/>
<path d="M2690 1576 c0 -8 5 -18 10 -21 6 -3 10 1 10 9 0 8 -4 18 -10 21 -5 3
-10 -1 -10 -9z"/>
<path d="M2686 1485 c-3 -8 -1 -15 4 -15 6 0 10 7 10 15 0 8 -2 15 -4 15 -2 0
-6 -7 -10 -15z"/>
<path d="M2390 966 c0 -44 19 -77 21 -37 4 64 3 75 -8 79 -9 2 -13 -10 -13
-42z"/>
</g>
</svg>
